HIERARCHY
ROOT Hips
{
    OFFSET   0.000000   0.000000   0.000000
    CHANNELS 6 Xposition Yposition Zposition Zrotation Xrotation Yrotation
    JOINT Chest
    {
        OFFSET   0.000000   8.007230   0.000000
        CHANNELS 3 Zrotation Xrotation Yrotation
        JOINT Chest2
        {
            OFFSET   0.000000  22.077100   0.000000
            CHANNELS 3 Zrotation Xrotation Yrotation
            JOINT Neck
            {
                OFFSET   0.000000  23.255100   0.000000
                CHANNELS 3 Zrotation Xrotation Yrotation
                JOINT Head
                {
                    OFFSET   0.000000  14.370100   1.956600
                    CHANNELS 3 Zrotation Xrotation Yrotation
                    End Site
                    {
                        OFFSET   0.000000  19.566000   0.000000
                    }
                }
            }
            JOINT LeftCollar
            {
                OFFSET   3.911900  19.017000  -0.467063
                CHANNELS 3 Zrotation Xrotation Yrotation
                JOINT LeftShoulder
                {
                    OFFSET  10.383700   0.000000   0.000000
                    CHANNELS 3 Zrotation Xrotation Yrotation
                    JOINT LeftElbow
                    {
                        OFFSET  26.662100   0.001193   0.000980
                        CHANNELS 3 Zrotation Xrotation Yrotation
                        JOINT LeftWrist
                        {
                            OFFSET  28.869000  -0.000059  -0.000082
                            CHANNELS 3 Zrotation Xrotation Yrotation
                            JOINT LeftFinger0
                            {
                                OFFSET   2.044650  -2.323450   3.252850
                                CHANNELS 3 Zrotation Xrotation Yrotation
                                JOINT LeftFinger01
                                {
                                    OFFSET   3.088130   0.000000   0.000000
                                    CHANNELS 3 Zrotation Xrotation Yrotation
                                    JOINT LeftFinger02
                                    {
                                        OFFSET   2.639460   0.000000   0.000000
                                        CHANNELS 3 Zrotation Xrotation Yrotation
                                        End Site
                                        {
                                            OFFSET   2.582190   0.000000   0.000000
                                        }
                                    }
                                }
                            }
                            JOINT LeftFinger1
                            {
                                OFFSET   8.364480   0.000000   3.252850
                                CHANNELS 3 Zrotation Xrotation Yrotation
                                JOINT LeftFinger11
                                {
                                    OFFSET   4.646930   0.000000   0.000000
                                    CHANNELS 3 Zrotation Xrotation Yrotation
                                    JOINT LeftFinger12
                                    {
                                        OFFSET   2.323470   0.000000   0.000000
                                        CHANNELS 3 Zrotation Xrotation Yrotation
                                        End Site
                                        {
                                            OFFSET   2.273050   0.000000   0.000000
                                        }
                                    }
                                }
                            }
                            JOINT LeftFinger2
                            {
                                OFFSET   8.364490   0.000016   1.078090
                                CHANNELS 3 Zrotation Xrotation Yrotation
                                JOINT LeftFinger21
                                {
                                    OFFSET   5.111610   0.000000   0.000000
                                    CHANNELS 3 Zrotation Xrotation Yrotation
                                    JOINT LeftFinger22
                                    {
                                        OFFSET   2.788150   0.000016   0.000000
                                        CHANNELS 3 Zrotation Xrotation Yrotation
                                        End Site
                                        {
                                            OFFSET   2.727660   0.000000   0.000000
                                        }
                                    }
                                }
                            }
                            JOINT LeftFinger3
                            {
                                OFFSET   7.899780   0.000015  -1.078090
                                CHANNELS 3 Zrotation Xrotation Yrotation
                                JOINT LeftFinger31
                                {
                                    OFFSET   4.646930   0.000000   0.000000
                                    CHANNELS 3 Zrotation Xrotation Yrotation
                                    JOINT LeftFinger32
                                    {
                                        OFFSET   2.323470   0.000000   0.000000
                                        CHANNELS 3 Zrotation Xrotation Yrotation
                                        End Site
                                        {
                                            OFFSET   2.273050   0.000000   0.000000
                                        }
                                    }
                                }
                            }
                            JOINT LeftFinger4
                            {
                                OFFSET   7.435090   0.000000  -3.252850
                                CHANNELS 3 Zrotation Xrotation Yrotation
                                JOINT LeftFinger41
                                {
                                    OFFSET   3.717550   0.000000   0.000000
                                    CHANNELS 3 Zrotation Xrotation Yrotation
                                    JOINT LeftFinger42
                                    {
                                        OFFSET   1.858770   0.000000   0.000000
                                        CHANNELS 3 Zrotation Xrotation Yrotation
                                        End Site
                                        {
                                            OFFSET   1.818440   0.000000   0.000000
                                        }
                                    }
                                }
                            }
                        }
                    }
                }
            }
            JOINT RightCollar
            {
                OFFSET  -3.911910  19.017000  -0.467062
                CHANNELS 3 Zrotation Xrotation Yrotation
                JOINT RightShoulder
                {
                    OFFSET -10.383700   0.000014   0.000000
                    CHANNELS 3 Zrotation Xrotation Yrotation
                    JOINT RightElbow
                    {
                        OFFSET -26.662100   0.001225   0.001091
                        CHANNELS 3 Zrotation Xrotation Yrotation
                        JOINT RightWrist
                        {
                            OFFSET -28.869000  -0.000020  -0.000085
                            CHANNELS 3 Zrotation Xrotation Yrotation
                            JOINT RightFinger0
                            {
                                OFFSET  -2.044650  -2.323490   3.252850
                                CHANNELS 3 Zrotation Xrotation Yrotation
                                JOINT RightFinger01
                                {
                                    OFFSET  -3.088130   0.000000   0.000000
                                    CHANNELS 3 Zrotation Xrotation Yrotation
                                    JOINT RightFinger02
                                    {
                                        OFFSET  -2.639460   0.000000   0.000000
                                        CHANNELS 3 Zrotation Xrotation Yrotation
                                        End Site
                                        {
                                            OFFSET  -2.582190   0.000000   0.000000
                                        }
                                    }
                                }
                            }
                            JOINT RightFinger1
                            {
                                OFFSET  -8.364480   0.000000   3.252850
                                CHANNELS 3 Zrotation Xrotation Yrotation
                                JOINT RightFinger11
                                {
                                    OFFSET  -4.646930   0.000000   0.000000
                                    CHANNELS 3 Zrotation Xrotation Yrotation
                                    JOINT RightFinger12
                                    {
                                        OFFSET  -2.323470   0.000000   0.000000
                                        CHANNELS 3 Zrotation Xrotation Yrotation
                                        End Site
                                        {
                                            OFFSET  -2.273050   0.000000   0.000000
                                        }
                                    }
                                }
                            }
                            JOINT RightFinger2
                            {
                                OFFSET  -8.364480   0.000000   1.078090
                                CHANNELS 3 Zrotation Xrotation Yrotation
                                JOINT RightFinger21
                                {
                                    OFFSET  -5.111620   0.000000   0.000000
                                    CHANNELS 3 Zrotation Xrotation Yrotation
                                    JOINT RightFinger22
                                    {
                                        OFFSET  -2.788160   0.000000   0.000000
                                        CHANNELS 3 Zrotation Xrotation Yrotation
                                        End Site
                                        {
                                            OFFSET  -2.727660   0.000000   0.000000
                                        }
                                    }
                                }
                            }
                            JOINT RightFinger3
                            {
                                OFFSET  -7.899780   0.000000  -1.078090
                                CHANNELS 3 Zrotation Xrotation Yrotation
                                JOINT RightFinger31
                                {
                                    OFFSET  -4.646930   0.000000   0.000000
                                    CHANNELS 3 Zrotation Xrotation Yrotation
                                    JOINT RightFinger32
                                    {
                                        OFFSET  -2.323470   0.000000   0.000000
                                        CHANNELS 3 Zrotation Xrotation Yrotation
                                        End Site
                                        {
                                            OFFSET  -2.273050   0.000000   0.000000
                                        }
                                    }
                                }
                            }
                            JOINT RightFinger4
                            {
                                OFFSET  -7.435090   0.000000  -3.252850
                                CHANNELS 3 Zrotation Xrotation Yrotation
                                JOINT RightFinger41
                                {
                                    OFFSET  -3.717550   0.000000   0.000000
                                    CHANNELS 3 Zrotation Xrotation Yrotation
                                    JOINT RightFinger42
                                    {
                                        OFFSET  -1.858760   0.000000   0.000000
                                        CHANNELS 3 Zrotation Xrotation Yrotation
                                        End Site
                                        {
                                            OFFSET  -1.818440   0.000000   0.000000
                                        }
                                    }
                                }
                            }
                        }
                    }
                }
            }
        }
    }
    JOINT LeftHip
    {
        OFFSET   9.783030   0.000000   0.000000
        CHANNELS 3 Zrotation Xrotation Yrotation
        JOINT LeftKnee
        {
            OFFSET   0.000063 -41.789100   0.000608
            CHANNELS 3 Zrotation Xrotation Yrotation
            JOINT LeftAnkle
            {
                OFFSET   0.000048 -41.133200  -0.000184
                CHANNELS 3 Zrotation Xrotation Yrotation
                JOINT LeftToe
                {
                    OFFSET   0.000000  -6.358960  14.674500
                    CHANNELS 3 Zrotation Xrotation Yrotation
                    End Site
                    {
                        OFFSET   0.000000   0.000000   3.913200
                    }
                }
            }
        }
    }
    JOINT RightHip
    {
        OFFSET  -9.783030   0.000000   0.000000
        CHANNELS 3 Zrotation Xrotation Yrotation
        JOINT RightKnee
        {
            OFFSET   0.000071 -41.789100   0.001239
            CHANNELS 3 Zrotation Xrotation Yrotation
            JOINT RightAnkle
            {
                OFFSET   0.000037 -41.133200  -0.000166
                CHANNELS 3 Zrotation Xrotation Yrotation
                JOINT RightToe
                {
                    OFFSET   0.000000  -6.358960  14.674500
                    CHANNELS 3 Zrotation Xrotation Yrotation
                    End Site
                    {
                        OFFSET   0.000000   0.000000   3.913200
                    }
                }
            }
        }
    }
}
MOTION
Frames: 4
Frame Time:   0.016667
  0.353315  89.947500  -0.810653  -0.732754  -3.048450   0.040496   0.015141   2.347380  -0.002493   0.030426   4.694760  -0.005614   1.949610   0.064317  -0.006233   3.203000   0.129648   3.861010  -4.125660   1.175220   4.050050 -70.164500  22.342200  -1.794650  -2.738920  -6.950260 -14.894500   9.079230 -10.301000   6.295730  39.862700  29.561500 -65.404700 -25.546000   0.008680   0.004250  -7.772980   0.008624   0.000733 -32.594200   3.104720  -4.841840 -26.775400   0.001295   0.000819 -18.753200   0.000753   0.000811 -28.629100  -0.402126   0.736567 -37.915500   0.002051   0.009216 -25.251800   0.000703   0.012858 -28.151000  -0.395787   0.739991 -32.983000   0.004418   0.002638 -21.964100   0.002332   0.002292 -31.136200  -0.433933   0.718262 -46.708400  -0.007978  -0.012585 -31.107800  -0.000277  -0.007367   8.909560   2.164560   5.477770  67.250800  11.905100  -1.199190   2.473640  -4.702950  10.583100 -13.049100 -22.768000  -0.880012 -42.974700  37.138400  79.016400  13.157500   0.010253  -0.002338   1.578730   0.006823   0.008149  27.967900   1.354830   2.549520  22.907400   0.007095   0.003225  16.035200   0.003826  -0.001242  27.292300  -0.525704  -1.018850  28.248500   0.003455  -0.000891  18.813500   0.003297  -0.000677  27.507400  -1.224150  -2.350420  29.305300   0.006600  -0.002331  19.517300   0.007763  -0.001763  30.679600  -2.383630  -4.010040  46.144500   0.000430  -0.007919  30.732200  -0.000750  -0.001761   1.466360   3.152050   2.129290   0.231871   1.610930  12.999900  -5.486810  -3.112850   4.316510  -0.000000   0.000000  -0.000000   0.144920   3.302740  -8.442720  -0.112471   2.574750 -10.292200  -6.290740   0.426410   0.854352   0.000000   0.000000   0.000000
  0.353641  89.947500  -0.835355  -0.731873  -3.069510   0.054356   0.013521   2.356620  -0.009748   0.027482   4.713240  -0.020078   1.952820   0.091055  -0.006148   3.208290   0.183790   3.837850  -4.133020   1.175240   4.036040 -70.164000  22.353200  -1.807210  -2.760760  -6.967310 -14.919800   9.075440 -10.241800   6.271540  39.873200  29.566100 -65.418700 -25.531400   0.008684   0.004241  -7.765690   0.008630   0.000731 -32.600600   3.109980  -4.848790 -26.781000   0.001294   0.000819 -18.753200   0.000754   0.000811 -28.629500  -0.391011   0.716239 -37.910500   0.002046   0.009214 -25.248500   0.000701   0.012853 -28.151300  -0.384855   0.719563 -32.985700   0.004414   0.002640 -21.963900   0.002332   0.002294 -31.147500  -0.422106   0.698335 -46.725200  -0.007977  -0.012586 -31.119000  -0.000278  -0.007365   8.911530   2.149350   5.464030  67.248600  11.939100  -1.163400   2.474850  -4.711660  10.578200 -13.014200 -22.795200  -0.806471 -42.989500  37.153200  79.031700  13.126600   0.010244  -0.002337   1.563330   0.006823   0.008144  27.950400   1.370310   2.580520  22.893700   0.007085   0.003223  16.025600   0.003822  -0.001238  27.292600  -0.512017  -0.992398  28.240200   0.003448  -0.000895  18.808000   0.003286  -0.000680  27.508400  -1.210870  -2.325090  29.307600   0.006606  -0.002334  19.518800   0.007767  -0.001766  30.677300  -2.370900  -3.990500  46.139900   0.000422  -0.007916  30.729100  -0.000751  -0.001750   1.468670   3.160220   2.125030   0.235769   1.602220  13.000000  -5.488390  -3.093090   4.305970  -0.000000   0.000000   0.000000   0.144575   3.304000  -8.437660  -0.111760   2.581620 -10.292200  -6.290430   0.439812   0.840004   0.000000   0.000000   0.000000
  0.353967  89.947400  -0.877046  -0.730629  -3.107090   0.074352   0.010517   2.373380  -0.023978   0.022061   4.746780  -0.048455   1.961470   0.137604  -0.006064   3.222530   0.278058   3.793710  -4.145330   1.175210   4.022020 -70.172200  22.364300  -1.819760  -2.795350  -6.990180 -14.986300   9.073890 -10.148200   6.234590  39.885100  29.568100 -65.435400 -25.503100   0.008691   0.004224  -7.751550   0.008636   0.000728 -32.610500   3.127060  -4.873390 -26.790300   0.001293   0.000818 -18.753200   0.000756   0.000811 -28.630200  -0.369771   0.677384 -37.899300   0.002034   0.009208 -25.241000   0.000695   0.012839 -28.152000  -0.363963   0.680520 -32.988400   0.004405   0.002645 -21.963700   0.002329   0.002299 -31.172600  -0.399511   0.660249 -46.762500  -0.007977  -0.012588 -31.143800  -0.000280  -0.007358   8.914470   2.123960   5.450260  67.241800  12.000900  -1.090770   2.476490  -4.722750  10.573500 -12.960200 -22.844600  -0.683461 -43.008900  37.175500  79.056200  13.095800   0.010220  -0.002328   1.547930   0.006824   0.008127  27.925900   1.392810   2.625500  22.874600   0.007061   0.003218  16.012200   0.003810  -0.001229  27.293000  -0.492893  -0.955395  28.231900   0.003428  -0.000904  18.802400   0.003263  -0.000687  27.509400  -1.196530  -2.297220  29.315500   0.006619  -0.002343  19.524100   0.007778  -0.001774  30.675200  -2.357470  -3.966860  46.135200   0.000397  -0.007909  30.726000  -0.000756  -0.001724   1.473840   3.172560   2.120780   0.242158   1.593510  13.000100  -5.491110  -3.061060   4.291260   0.000000   0.000000   0.000000   0.144466   3.307770  -8.430340  -0.112404   2.594300 -10.292300  -6.290220   0.461222   0.824376  -0.000000   0.000000  -0.000000
  0.353949  89.947400  -0.911048  -0.730031  -3.141610   0.085029   0.007668   2.388430  -0.039367   0.017005   4.776860  -0.079158   1.972470   0.178793  -0.006498   3.240660   0.361574   3.750270  -4.154830   1.168030   4.022410 -70.199800  22.362000  -1.809480  -2.818140  -6.997640 -15.089100   9.084410 -10.070100   6.214040  39.890500  29.542300 -65.411400 -25.473800   0.008695   0.004202  -7.736910   0.008632   0.000729 -32.614600   3.156560  -4.918320 -26.795700   0.001294   0.000818 -18.755700   0.000756   0.000810 -28.630900  -0.347616   0.636840 -37.879400   0.002015   0.009199 -25.227700   0.000687   0.012816 -28.152800  -0.342166   0.639783 -32.986700   0.004394   0.002655 -21.964200   0.002323   0.002306 -31.202100  -0.375954   0.620511 -46.806200  -0.007976  -0.012591 -31.172900  -0.000282  -0.007348   8.920140   2.104690   5.451940  67.231700  12.059600  -1.006580   2.477020  -4.724300  10.576500 -12.928900 -22.894400  -0.585663 -43.011000  37.185000  79.069400  13.100600   0.010185  -0.002269   1.550340   0.006830   0.008097  27.917800   1.402380   2.644400  22.868300   0.007022   0.003216  16.007800   0.003786  -0.001220  27.293300  -0.486649  -0.943189  28.241800   0.003395  -0.000915  18.809000   0.003232  -0.000695  27.509400  -1.195820  -2.295530  29.331500   0.006637  -0.002358  19.534700   0.007797  -0.001783  30.683800  -2.357010  -3.964060  46.147900   0.000357  -0.007898  30.734500  -0.000767  -0.001687   1.481160   3.178010   2.127640   0.247362   1.599250  12.991300  -5.493250  -3.037280   4.285130  -0.000000   0.000000  -0.000000   0.145994   3.314310  -8.428540  -0.115672   2.605930 -10.295700  -6.292580   0.476823   0.822883  -0.000000   0.000000   0.000000
